<svg width="100" height="97" viewBox="0 0 100 97" fill="none" xmlns="http://www.w3.org/2000/svg">
<path d="M98.9584 70.5004V84.3755H59.375V44.792H78.9479C80.2255 44.7926 81.4705 45.1953 82.5064 45.9432C83.5422 46.6911 84.3162 47.7461 84.7188 48.9587L89.5834 63.5421L94.198 64.5837C95.544 64.8856 96.7478 65.6351 97.6125 66.7099C98.4772 67.7846 98.9517 69.121 98.9584 70.5004Z" fill="#EF8F71"/>
<path d="M98.9584 70.5001V81.25H68.75C67.0924 81.25 65.5027 80.5915 64.3306 79.4194C63.1585 78.2473 62.5 76.6576 62.5 75.0001V44.792H78.9479C80.2255 44.7926 81.4705 45.1953 82.5064 45.9432C83.5422 46.6911 84.3162 47.7461 84.7188 48.9586L89.5834 63.5418L94.198 64.5835C95.544 64.8853 96.7478 65.6349 97.6125 66.7096C98.4772 67.7843 98.9517 69.1207 98.9584 70.5001Z" fill="#F2A180"/>
<path d="M89.582 63.5425H67.707V48.959H84.7174L88.8841 61.4591L89.582 63.5425Z" fill="#90D1D7"/>
<path d="M88.8842 61.459H74.5925C73.5951 61.459 72.6386 61.0628 71.9334 60.3576C71.2282 59.6524 70.832 58.6959 70.832 57.6986V48.959H84.7175L88.8842 61.459Z" fill="#ABD9E6"/>
<path d="M97.9179 72.917H98.9596V79.167H97.9179C97.0891 79.167 96.2943 78.8378 95.7082 78.2517C95.1222 77.6657 94.793 76.8708 94.793 76.042C94.793 75.2132 95.1222 74.4183 95.7082 73.8323C96.2943 73.2462 97.0891 72.917 97.9179 72.917Z" fill="#F6B756"/>
<path d="M59.3763 76.042H1.04297V84.3755H59.3763V76.042Z" fill="#EF8F71"/>
<path d="M4.16797 76.042H59.3763V81.25H8.33464C7.22957 81.25 6.16976 80.811 5.38836 80.0297C4.60696 79.2483 4.16797 78.1886 4.16797 77.0836V76.042Z" fill="#F2A180"/>
<path d="M59.3763 36.459H1.04297V76.0425H59.3763V36.459Z" fill="#B8C0CE"/>
<path d="M23.9597 94.7925C29.7126 94.7925 34.3763 90.1287 34.3763 84.3757C34.3763 78.6227 29.7126 73.959 23.9597 73.959C18.2067 73.959 13.543 78.6227 13.543 84.3757C13.543 90.1287 18.2067 94.7925 23.9597 94.7925Z" fill="#5C5F7D"/>
<path d="M23.9597 91.6675C27.9867 91.6675 31.2513 88.4029 31.2513 84.3757C31.2513 80.3486 27.9867 77.084 23.9597 77.084C19.9326 77.084 16.668 80.3486 16.668 84.3757C16.668 88.4029 19.9326 91.6675 23.9597 91.6675Z" fill="#6A6E86"/>
<path d="M23.9597 88.542C26.2609 88.542 28.1263 86.6766 28.1263 84.3755C28.1263 82.0744 26.2609 80.209 23.9597 80.209C21.6585 80.209 19.793 82.0744 19.793 84.3755C19.793 86.6766 21.6585 88.542 23.9597 88.542Z" fill="#8288A1"/>
<path d="M78.1237 94.7925C83.8767 94.7925 88.5404 90.1287 88.5404 84.3757C88.5404 78.6227 83.8767 73.959 78.1237 73.959C72.3707 73.959 67.707 78.6227 67.707 84.3757C67.707 90.1287 72.3707 94.7925 78.1237 94.7925Z" fill="#5C5F7D"/>
<path d="M78.1237 91.6675C82.1508 91.6675 85.4154 88.4029 85.4154 84.3757C85.4154 80.3486 82.1508 77.084 78.1237 77.084C74.0966 77.084 70.832 80.3486 70.832 84.3757C70.832 88.4029 74.0966 91.6675 78.1237 91.6675Z" fill="#6A6E86"/>
<path d="M78.1237 88.542C80.4249 88.542 82.2904 86.6766 82.2904 84.3755C82.2904 82.0744 80.4249 80.209 78.1237 80.209C75.8225 80.209 73.957 82.0744 73.957 84.3755C73.957 86.6766 75.8225 88.542 78.1237 88.542Z" fill="#8288A1"/>
<path d="M1.04297 36.459H56.2513V66.6675C56.2513 68.3251 55.5929 69.9148 54.4208 71.0869C53.2487 72.259 51.6589 72.9175 50.0013 72.9175H1.04297V36.459Z" fill="#CCD1DC"/>
<path d="M42.7096 65.6255H22.918L26.043 48.959H45.8346L42.7096 65.6255Z" fill="#F6B756"/>
<path d="M26.043 48.959L35.4179 58.334L45.8346 48.959" fill="#F6B756"/>
<path d="M57.293 9.50049V5.20898H61.4596V9.50049" stroke="#39426A" stroke-width="2" stroke-linecap="round" stroke-linejoin="round"/>
<path d="M63.5404 1.04102H55.207V5.20801H63.5404V1.04102Z" stroke="#39426A" stroke-width="2" stroke-linecap="round" stroke-linejoin="round"/>
<path d="M69.793 12.7389L71.0221 11.4575C71.4125 11.0694 71.9405 10.8516 72.4909 10.8516C73.0412 10.8516 73.5693 11.0694 73.9596 11.4575C74.3476 11.8479 74.5654 12.3759 74.5654 12.9264C74.5654 13.4769 74.3476 14.005 73.9596 14.3954L72.8034 15.5518" stroke="#39426A" stroke-width="2" stroke-linecap="round" stroke-linejoin="round"/>
<path d="M45.9496 15.5518L44.7933 14.3954C44.4053 14.005 44.1875 13.4769 44.1875 12.9264C44.1875 12.3759 44.4053 11.8479 44.7933 11.4575C45.1837 11.0694 45.7117 10.8516 46.2621 10.8516C46.8125 10.8516 47.3405 11.0694 47.7308 11.4575L49.0121 12.7389" stroke="#39426A" stroke-width="2" stroke-linecap="round" stroke-linejoin="round"/>
<path d="M57.293 9.50049V5.20898H61.4596V9.50049" fill="#969CB2"/>
<path d="M63.5404 1.04102H55.207V5.20801H63.5404V1.04102Z" fill="#AEB4C6"/>
<path d="M69.793 12.7389L71.0221 11.4575C71.4125 11.0694 71.9405 10.8516 72.4909 10.8516C73.0412 10.8516 73.5693 11.0694 73.9596 11.4575C74.3476 11.8479 74.5654 12.3759 74.5654 12.9264C74.5654 13.4769 74.3476 14.005 73.9596 14.3954L72.8034 15.5518L69.793 12.7389Z" fill="#AEB4C6"/>
<path d="M45.9496 15.5518L44.7933 14.3954C44.4053 14.005 44.1875 13.4769 44.1875 12.9264C44.1875 12.3759 44.4053 11.8479 44.7933 11.4575C45.1837 11.0694 45.7117 10.8516 46.2621 10.8516C46.8125 10.8516 47.3405 11.0694 47.7308 11.4575L49.0121 12.7389L45.9496 15.5518Z" fill="#AEB4C6"/>
<path d="M59.3763 44.7915C69.1563 44.7915 77.0846 36.8632 77.0846 27.0833C77.0846 17.3033 69.1563 9.375 59.3763 9.375C49.5963 9.375 41.668 17.3033 41.668 27.0833C41.668 36.8632 49.5963 44.7915 59.3763 44.7915Z" fill="#8288A1"/>
<path d="M59.3737 40.6255C66.8526 40.6255 72.9154 34.5626 72.9154 27.0837C72.9154 19.6048 66.8526 13.542 59.3737 13.542C51.8949 13.542 45.832 19.6048 45.832 27.0837C45.832 34.5626 51.8949 40.6255 59.3737 40.6255Z" fill="#90D1D7"/>
<path d="M59.3737 37.5C65.1267 37.5 69.7904 32.8362 69.7904 27.083C69.7904 21.3299 65.1267 16.666 59.3737 16.666C53.6207 16.666 48.957 21.3299 48.957 27.083C48.957 32.8362 53.6207 37.5 59.3737 37.5Z" fill="#ABD9E6"/>
<path d="M66.6654 28.124C66.3891 28.124 66.1241 28.0143 65.9288 27.819C65.7334 27.6236 65.6237 27.3587 65.6237 27.0825C65.6237 25.425 64.9652 23.8355 63.7931 22.6635C62.621 21.4915 61.0313 20.8331 59.3737 20.8331C59.0974 20.8331 58.8325 20.7234 58.6371 20.5281C58.4418 20.3327 58.332 20.0678 58.332 19.7916C58.332 19.5153 58.4418 19.2504 58.6371 19.0551C58.8325 18.8597 59.0974 18.75 59.3737 18.75C61.5838 18.75 63.7034 19.6279 65.2663 21.1905C66.8291 22.7532 67.707 24.8726 67.707 27.0825C67.707 27.3587 67.5973 27.6236 67.4019 27.819C67.2066 28.0143 66.9416 28.124 66.6654 28.124Z" fill="#C3E1F5"/>
<path d="M59.3763 35.417C57.1662 35.417 55.0466 34.539 53.4837 32.9762C51.9209 31.4134 51.043 29.2938 51.043 27.0837C51.043 26.8074 51.1527 26.5424 51.3481 26.3471C51.5434 26.1517 51.8084 26.042 52.0846 26.042C52.3609 26.042 52.6259 26.1517 52.8212 26.3471C53.0166 26.5424 53.1263 26.8074 53.1263 27.0837C53.1263 28.7413 53.7848 30.331 54.9569 31.5031C56.129 32.6752 57.7187 33.3337 59.3763 33.3337C59.6526 33.3337 59.9175 33.4434 60.1129 33.6388C60.3082 33.8341 60.418 34.0991 60.418 34.3753C60.418 34.6516 60.3082 34.9165 60.1129 35.1119C59.9175 35.3072 59.6526 35.417 59.3763 35.417Z" fill="#C3E1F5"/>
<path d="M94.4166 63.5417L90.3854 62.6459L85.7083 48.6251C85.2373 47.2048 84.3304 45.9692 83.1167 45.0939C81.903 44.2187 80.4443 43.7485 78.9479 43.75H67.9271C70.3801 42.5001 72.5265 40.7233 74.2126 38.5468C75.8987 36.3703 77.0827 33.848 77.6799 31.1604C78.2772 28.4728 78.2729 25.6864 77.6673 23.0006C77.0617 20.3149 75.8699 17.7963 74.1771 15.625L74.6875 15.125C75.2727 14.5391 75.6014 13.7448 75.6014 12.9167C75.6014 12.0886 75.2727 11.2943 74.6875 10.7083C74.0914 10.1427 73.3009 9.82738 72.4792 9.82738C71.6574 9.82738 70.8669 10.1427 70.2708 10.7083L69.6042 11.3854C67.4521 9.98256 65.0336 9.03924 62.5 8.61459V6.25001H63.5417C63.8179 6.25001 64.0829 6.14026 64.2782 5.94491C64.4736 5.74956 64.5833 5.48461 64.5833 5.20834V1.04167C64.5833 0.7654 64.4736 0.500448 64.2782 0.305097C64.0829 0.109747 63.8179 0 63.5417 0H55.2083C54.9321 0 54.6671 0.109747 54.4718 0.305097C54.2764 0.500448 54.1667 0.7654 54.1667 1.04167V5.20834C54.1667 5.48461 54.2764 5.74956 54.4718 5.94491C54.6671 6.14026 54.9321 6.25001 55.2083 6.25001H56.25V8.61459C53.712 9.04104 51.2897 9.98797 49.1354 11.3958L48.4687 10.7188C47.8726 10.1531 47.0822 9.8378 46.2604 9.8378C45.4386 9.8378 44.6482 10.1531 44.0521 10.7188C43.4669 11.3047 43.1382 12.099 43.1382 12.9271C43.1382 13.7552 43.4669 14.5495 44.0521 15.1354L44.5625 15.6354C42.3967 18.4089 41.0628 21.7404 40.7161 25.2422C40.3695 28.7441 41.0242 32.2724 42.6042 35.4167H1.04167C0.765399 35.4167 0.500447 35.5265 0.305097 35.7218C0.109747 35.9172 0 36.1821 0 36.4584L0 84.3751C0 84.6514 0.109747 84.9163 0.305097 85.1117C0.500447 85.307 0.765399 85.4168 1.04167 85.4168H12.5521C12.7478 88.3154 14.0374 91.0315 16.1598 93.0155C18.2823 94.9994 21.0791 96.103 23.9844 96.103C26.8897 96.103 29.6865 94.9994 31.8089 93.0155C33.9313 91.0315 35.2209 88.3154 35.4167 85.4168H66.7708C67.0423 88.2538 68.3612 90.8879 70.4703 92.8048C72.5793 94.7217 75.3271 95.7838 78.1771 95.7838C81.0271 95.7838 83.7748 94.7217 85.8839 92.8048C87.9929 90.8879 89.3119 88.2538 89.5833 85.4168H98.9583C99.2346 85.4168 99.4995 85.307 99.6949 85.1117C99.8902 84.9163 100 84.6514 100 84.3751V70.5001C100.01 68.8754 99.4606 67.2968 98.4438 66.0296C97.427 64.7624 96.0049 63.8839 94.4166 63.5417ZM88.1666 62.5001H68.75V50.0001H83.9687L88.1666 62.5001ZM71.7604 12.1979C71.9551 12.0071 72.2169 11.9002 72.4896 11.9002C72.7622 11.9002 73.024 12.0071 73.2187 12.1979C73.4096 12.3926 73.5165 12.6544 73.5165 12.9271C73.5165 13.1998 73.4096 13.4615 73.2187 13.6563L72.8333 14.0521C72.3437 13.5521 71.7917 13.0833 71.3125 12.6354L71.7604 12.1979ZM56.25 2.08334H62.5V4.16667H56.25V2.08334ZM58.3333 6.25001H60.4167V8.38543C60.0729 8.38543 59.7292 8.33334 59.375 8.33334C59.0208 8.33334 58.6771 8.33334 58.3333 8.38543V6.25001ZM45.5312 13.6563C45.3404 13.4615 45.2335 13.1998 45.2335 12.9271C45.2335 12.6544 45.3404 12.3926 45.5312 12.1979C45.726 12.0071 45.9878 11.9002 46.2604 11.9002C46.5331 11.9002 46.7949 12.0071 46.9896 12.1979L47.4375 12.6354C46.9062 13.0833 46.3958 13.5521 45.9167 14.0521L45.5312 13.6563ZM59.375 10.4167C62.6713 10.4167 65.8937 11.3942 68.6345 13.2255C71.3753 15.0569 73.5115 17.6599 74.773 20.7053C76.0344 23.7507 76.3645 27.1019 75.7214 30.3349C75.0783 33.5679 73.491 36.5376 71.1601 38.8685C68.8292 41.1994 65.8595 42.7867 62.6265 43.4298C59.3935 44.0729 56.0424 43.7428 52.9969 42.4814C49.9515 41.2199 47.3485 39.0837 45.5172 36.3429C43.6858 33.6021 42.7083 30.3797 42.7083 27.0834C42.7083 22.6631 44.4643 18.4238 47.5899 15.2982C50.7155 12.1726 54.9547 10.4167 59.375 10.4167ZM43.75 37.5C45.3655 39.9273 47.5248 41.9444 50.0563 43.391C52.5879 44.8376 55.422 45.6739 58.3333 45.8334V75.0001H30.5208C28.6011 73.6442 26.3086 72.9162 23.9583 72.9162C21.6081 72.9162 19.3155 73.6442 17.3958 75.0001H2.08333V37.5H43.75ZM58.3333 83.3334H35.4167C35.207 81.0388 34.3103 78.8607 32.8437 77.0834H58.3333V83.3334ZM2.08333 77.0834H15.125C13.6584 78.8607 12.7618 81.0388 12.5521 83.3334H2.08333V77.0834ZM23.9583 93.7501C22.1041 93.7501 20.2916 93.2003 18.7499 92.1701C17.2081 91.14 16.0065 89.6758 15.297 87.9628C14.5874 86.2497 14.4017 84.3647 14.7635 82.5461C15.1252 80.7275 16.0181 79.0571 17.3292 77.746C18.6403 76.4348 20.3108 75.542 22.1294 75.1802C23.9479 74.8185 25.8329 75.0041 27.546 75.7137C29.259 76.4233 30.7232 77.6249 31.7534 79.1666C32.7835 80.7083 33.3333 82.5209 33.3333 84.3751C33.3333 86.8615 32.3456 89.2461 30.5875 91.0042C28.8293 92.7624 26.4447 93.7501 23.9583 93.7501ZM78.125 93.7501C76.2708 93.7501 74.4582 93.2003 72.9165 92.1701C71.3748 91.14 70.1732 89.6758 69.4636 87.9628C68.754 86.2497 68.5684 84.3647 68.9301 82.5461C69.2919 80.7275 70.1847 79.0571 71.4959 77.746C72.807 76.4348 74.4774 75.542 76.296 75.1802C78.1146 74.8185 79.9996 75.0041 81.7126 75.7137C83.4257 76.4233 84.8899 77.6249 85.92 79.1666C86.9501 80.7083 87.5 82.5209 87.5 84.3751C87.5 86.8615 86.5123 89.2461 84.7541 91.0042C82.996 92.7624 80.6114 93.7501 78.125 93.7501ZM97.9166 83.3334H89.5833C89.3119 80.4964 87.9929 77.8623 85.8839 75.9454C83.7748 74.0285 81.0271 72.9663 78.1771 72.9663C75.3271 72.9663 72.5793 74.0285 70.4703 75.9454C68.3612 77.8623 67.0423 80.4964 66.7708 83.3334H60.4167V45.8334H78.9479C79.7431 45.8341 80.5269 46.0232 81.2348 46.3854C81.9428 46.7475 82.5549 47.2723 83.0208 47.9167H67.7083C67.4321 47.9167 67.1671 48.0265 66.9718 48.2218C66.7764 48.4172 66.6667 48.6821 66.6667 48.9584V63.5417C66.6667 63.818 66.7764 64.083 66.9718 64.2783C67.1671 64.4737 67.4321 64.5834 67.7083 64.5834H89.4687L93.9687 65.6251C95.0825 65.8687 96.0802 66.4841 96.7977 67.3701C97.5153 68.2561 97.9099 69.36 97.9166 70.5001V71.8751C96.8116 71.8751 95.7518 72.3141 94.9704 73.0955C94.189 73.8769 93.75 74.9367 93.75 76.0417C93.75 77.1468 94.189 78.2066 94.9704 78.988C95.7518 79.7694 96.8116 80.2084 97.9166 80.2084V83.3334ZM97.9166 78.1251C97.3641 78.1251 96.8342 77.9056 96.4435 77.5149C96.0528 77.1242 95.8333 76.5943 95.8333 76.0417C95.8333 75.4892 96.0528 74.9593 96.4435 74.5686C96.8342 74.1779 97.3641 73.9584 97.9166 73.9584V78.1251Z" fill="#39426A"/>
<path d="M23.9583 79.167C22.9282 79.167 21.9212 79.4725 21.0647 80.0447C20.2082 80.617 19.5407 81.4305 19.1465 82.3821C18.7523 83.3338 18.6491 84.381 18.8501 85.3913C19.051 86.4016 19.5471 87.3297 20.2755 88.058C21.0039 88.7864 21.9319 89.2825 22.9422 89.4834C23.9525 89.6844 24.9998 89.5812 25.9514 89.187C26.9031 88.7928 27.7166 88.1253 28.2889 87.2688C28.8612 86.4123 29.1666 85.4053 29.1666 84.3752C29.1666 82.9939 28.6179 81.6692 27.6411 80.6924C26.6644 79.7157 25.3396 79.167 23.9583 79.167ZM23.9583 87.5002C23.3403 87.5002 22.7361 87.3169 22.2222 86.9735C21.7083 86.6302 21.3077 86.1421 21.0712 85.5711C20.8347 85.0001 20.7728 84.3718 20.8934 83.7656C21.014 83.1594 21.3116 82.6026 21.7486 82.1656C22.1857 81.7285 22.7425 81.4309 23.3487 81.3103C23.9548 81.1898 24.5832 81.2516 25.1542 81.4882C25.7252 81.7247 26.2133 82.1252 26.5566 82.6391C26.9 83.153 27.0833 83.7572 27.0833 84.3752C27.0833 85.204 26.7541 85.9989 26.168 86.5849C25.582 87.171 24.7871 87.5002 23.9583 87.5002Z" fill="#39426A"/>
<path d="M78.1263 79.167C77.0962 79.167 76.0892 79.4725 75.2327 80.0447C74.3762 80.617 73.7086 81.4305 73.3144 82.3821C72.9202 83.3338 72.8171 84.381 73.018 85.3913C73.219 86.4016 73.715 87.3297 74.4434 88.058C75.1718 88.7864 76.0999 89.2825 77.1102 89.4834C78.1205 89.6844 79.1677 89.5812 80.1194 89.187C81.0711 88.7928 81.8845 88.1253 82.4568 87.2688C83.0291 86.4123 83.3346 85.4053 83.3346 84.3752C83.3346 82.9939 82.7859 81.6692 81.8091 80.6924C80.8324 79.7157 79.5076 79.167 78.1263 79.167ZM78.1263 87.5002C77.5082 87.5002 76.904 87.3169 76.3901 86.9735C75.8762 86.6302 75.4757 86.1421 75.2392 85.5711C75.0026 85.0001 74.9408 84.3718 75.0613 83.7656C75.1819 83.1594 75.4795 82.6026 75.9166 82.1656C76.3536 81.7285 76.9104 81.4309 77.5166 81.3103C78.1228 81.1898 78.7511 81.2516 79.3222 81.4882C79.8932 81.7247 80.3812 82.1252 80.7246 82.6391C81.068 83.153 81.2513 83.7572 81.2513 84.3752C81.2513 85.204 80.922 85.9989 80.336 86.5849C79.7499 87.171 78.9551 87.5002 78.1263 87.5002Z" fill="#39426A"/>
<path d="M59.3763 12.5C56.492 12.5 53.6724 13.3553 51.2742 14.9578C48.876 16.5603 47.0068 18.838 45.9031 21.5028C44.7993 24.1676 44.5105 27.0999 45.0732 29.9289C45.6359 32.7579 47.0248 35.3564 49.0643 37.396C51.1038 39.4356 53.7023 40.8245 56.5312 41.3873C59.3601 41.95 62.2923 41.6612 64.9571 40.5574C67.6218 39.4535 69.8994 37.5843 71.5019 35.186C73.1043 32.7877 73.9596 29.9681 73.9596 27.0837C73.9596 23.2159 72.4231 19.5065 69.6882 16.7715C66.9533 14.0365 63.244 12.5 59.3763 12.5ZM71.5742 29.7921C71.5742 29.9797 71.4804 30.1567 71.4388 30.3338C71.3971 30.5109 71.2825 30.8651 71.1992 31.1255C71.0171 31.641 70.805 32.1454 70.5638 32.636C70.4388 32.886 70.3138 33.1152 70.1784 33.3547C69.9078 33.8231 69.605 34.2722 69.2721 34.6985C68.6134 35.5543 67.8466 36.3211 66.9909 36.9798C66.5645 37.3127 66.1155 37.6155 65.6471 37.8861L64.9284 38.2715C64.4378 38.5128 63.9334 38.7249 63.4179 38.907L62.6263 39.1466L62.0846 39.282C61.5355 39.4156 60.979 39.5165 60.418 39.5841C59.7253 39.6537 59.0273 39.6537 58.3346 39.5841C57.7746 39.5337 57.2181 39.4502 56.668 39.3341L56.1263 39.1987L55.3346 38.9591C54.8191 38.777 54.3148 38.5648 53.8242 38.3236L53.1263 37.8861C52.6579 37.6155 52.2089 37.3127 51.7825 36.9798C50.9268 36.3211 50.16 35.5543 49.5013 34.6985C49.1605 34.2661 48.8507 33.8101 48.5742 33.3339C48.4388 33.0943 48.3138 32.8651 48.1888 32.6151C47.9476 32.1245 47.7354 31.6202 47.5534 31.1047C47.4701 30.8443 47.3867 30.5838 47.3138 30.313C47.2409 30.0422 47.2201 29.9588 47.1784 29.7713C47.0623 29.2212 46.9788 28.6646 46.9284 28.1046C46.8588 27.4119 46.8588 26.7139 46.9284 26.0212C46.9788 25.4612 47.0623 24.9046 47.1784 24.3545C47.1784 24.167 47.2721 23.9899 47.3138 23.8128C47.3555 23.6357 47.4701 23.2815 47.5534 23.0211C47.7354 22.5056 47.9476 22.0013 48.1888 21.5107C48.3138 21.2607 48.4388 21.0315 48.5742 20.7919C48.8448 20.3235 49.1476 19.8745 49.4805 19.4481C50.1392 18.5923 50.9059 17.8255 51.7617 17.1668C52.1954 16.8403 52.6514 16.5444 53.1263 16.2814L53.845 15.8959C54.3356 15.6547 54.84 15.4425 55.3555 15.2605L56.1471 15.0209L56.6888 14.8855C57.2389 14.7694 57.7955 14.6859 58.3555 14.6355C59.0482 14.5659 59.7461 14.5659 60.4388 14.6355C60.9988 14.6859 61.5553 14.7694 62.1054 14.8855L62.6471 15.0209L63.4388 15.2605C63.9543 15.4425 64.4586 15.6547 64.9492 15.8959L65.6679 16.2814C66.1363 16.5519 66.5853 16.8548 67.0117 17.1876C67.8675 17.8463 68.6343 18.6132 69.2929 19.4689C69.6195 19.9027 69.9153 20.3586 70.1784 20.8336C70.3138 21.0732 70.4388 21.3023 70.5638 21.5523C70.805 22.0429 71.0171 22.5473 71.1992 23.0628C71.2825 23.3232 71.3659 23.5836 71.4388 23.8545C71.5117 24.1253 71.5325 24.2087 71.5742 24.3962C71.707 24.9384 71.8079 25.488 71.8763 26.042C71.9459 26.7348 71.9459 27.4327 71.8763 28.1254C71.8087 28.6865 71.7078 29.2431 71.5742 29.7921Z" fill="#39426A"/>
<path d="M60.4154 38.5418V39.5835C59.7227 39.6531 59.0247 39.6531 58.332 39.5835V38.5418C58.332 38.2655 58.4418 38.0005 58.6371 37.8051C58.8325 37.6098 59.0974 37.5 59.3737 37.5C59.65 37.5 59.9149 37.6098 60.1103 37.8051C60.3057 38.0005 60.4154 38.2655 60.4154 38.5418Z" fill="#8288A1"/>
<path d="M71.8763 27.0837C71.8973 27.4307 71.8973 27.7786 71.8763 28.1255H70.8346C70.5584 28.1255 70.2934 28.0157 70.0981 27.8204C69.9027 27.625 69.793 27.36 69.793 27.0837C69.793 26.8075 69.9027 26.5425 70.0981 26.3471C70.2934 26.1517 70.5584 26.042 70.8346 26.042H71.8763C71.8973 26.3889 71.8973 26.7368 71.8763 27.0837Z" fill="#8288A1"/>
<path d="M60.4154 14.6362V15.6253C60.4154 15.9015 60.3057 16.1663 60.1103 16.3615C59.9149 16.5568 59.65 16.6665 59.3737 16.6665C59.0974 16.6665 58.8325 16.5568 58.6371 16.3615C58.4418 16.1663 58.332 15.9015 58.332 15.6253V14.6362C59.0247 14.5666 59.7227 14.5666 60.4154 14.6362Z" fill="#8288A1"/>
<path d="M48.9597 27.0837C48.9597 27.36 48.85 27.625 48.6546 27.8204C48.4593 28.0157 48.1943 28.1255 47.9181 28.1255H46.8764C46.8068 27.4327 46.8068 26.7347 46.8764 26.042H47.9181C48.1943 26.042 48.4593 26.1517 48.6546 26.3471C48.85 26.5425 48.9597 26.8075 48.9597 27.0837Z" fill="#8288A1"/>
<path d="M71.8737 67.709H68.7487C68.4724 67.709 68.2075 67.8187 68.0121 68.014C67.8168 68.2094 67.707 68.4743 67.707 68.7505C67.707 69.0267 67.8168 69.2916 68.0121 69.4869C68.2075 69.6823 68.4724 69.792 68.7487 69.792H71.8737C72.15 69.792 72.415 69.6823 72.6103 69.4869C72.8057 69.2916 72.9154 69.0267 72.9154 68.7505C72.9154 68.4743 72.8057 68.2094 72.6103 68.014C72.415 67.8187 72.15 67.709 71.8737 67.709Z" fill="#39426A"/>
<path d="M59.3746 29.167C59.8292 29.1624 60.2699 29.0091 60.6293 28.7306C60.9887 28.4521 61.2472 28.0637 61.3652 27.6246C61.4833 27.1855 61.4544 26.7199 61.2831 26.2987C61.1117 25.8775 60.8073 25.524 60.4162 25.292V20.8337C60.4162 20.5574 60.3065 20.2924 60.1111 20.0971C59.9158 19.9017 59.6508 19.792 59.3746 19.792C59.0983 19.792 58.8334 19.9017 58.638 20.0971C58.4427 20.2924 58.3329 20.5574 58.3329 20.8337V25.292C57.9419 25.524 57.6374 25.8775 57.4661 26.2987C57.2947 26.7199 57.2659 27.1855 57.3839 27.6246C57.502 28.0637 57.7604 28.4521 58.1198 28.7306C58.4793 29.0091 58.9199 29.1624 59.3746 29.167Z" fill="#CF4055"/>
<path d="M29.1667 10.4175H41.6667C41.943 10.4175 42.2079 10.3077 42.4033 10.1124C42.5986 9.91699 42.7084 9.65202 42.7084 9.37573C42.7084 9.09944 42.5986 8.83447 42.4033 8.63911C42.2079 8.44374 41.943 8.33398 41.6667 8.33398H29.1667C28.8904 8.33398 28.6254 8.44374 28.4301 8.63911C28.2347 8.83447 28.125 9.09944 28.125 9.37573C28.125 9.65202 28.2347 9.91699 28.4301 10.1124C28.6254 10.3077 28.8904 10.4175 29.1667 10.4175Z" fill="#7190C4"/>
<path d="M9.3737 10.4175H24.9987C25.275 10.4175 25.54 10.3077 25.7353 10.1124C25.9307 9.91699 26.0404 9.65202 26.0404 9.37573C26.0404 9.09944 25.9307 8.83447 25.7353 8.63911C25.54 8.44374 25.275 8.33398 24.9987 8.33398H9.3737C9.09743 8.33398 8.83248 8.44374 8.63713 8.63911C8.44178 8.83447 8.33203 9.09944 8.33203 9.37573C8.33203 9.65202 8.44178 9.91699 8.63713 10.1124C8.83248 10.3077 9.09743 10.4175 9.3737 10.4175Z" fill="#7190C4"/>
<path d="M19.7917 18.75C19.5154 18.75 19.2504 18.8597 19.0551 19.055C18.8597 19.2503 18.75 19.5151 18.75 19.7913C18.75 20.0674 18.8597 20.3323 19.0551 20.5275C19.2504 20.7228 19.5154 20.8325 19.7917 20.8325H37.5C37.7762 20.8325 38.0412 20.7228 38.2365 20.5275C38.4319 20.3323 38.5416 20.0674 38.5416 19.7913C38.5416 19.5151 38.4319 19.2503 38.2365 19.055C38.0412 18.8597 37.7762 18.75 37.5 18.75H19.7917Z" fill="#7190C4"/>
<path d="M11.4596 18.75C11.1834 18.75 10.9184 18.8597 10.7231 19.055C10.5277 19.2503 10.418 19.5151 10.418 19.7913C10.418 20.0674 10.5277 20.3323 10.7231 20.5275C10.9184 20.7228 11.1834 20.8325 11.4596 20.8325H15.6263C15.9026 20.8325 16.1675 20.7228 16.3629 20.5275C16.5582 20.3323 16.668 20.0674 16.668 19.7913C16.668 19.5151 16.5582 19.2503 16.3629 19.055C16.1675 18.8597 15.9026 18.75 15.6263 18.75H11.4596Z" fill="#7190C4"/>
<path d="M8.33464 31.2505H36.4597C36.7359 31.2505 37.0009 31.1407 37.1962 30.9454C37.3916 30.75 37.5013 30.485 37.5013 30.2087C37.5013 29.9325 37.3916 29.6675 37.1962 29.4721C37.0009 29.2767 36.7359 29.167 36.4597 29.167H8.33464C8.05837 29.167 7.79342 29.2767 7.59807 29.4721C7.40272 29.6675 7.29297 29.9325 7.29297 30.2087C7.29297 30.485 7.40272 30.75 7.59807 30.9454C7.79342 31.1407 8.05837 31.2505 8.33464 31.2505Z" fill="#7190C4"/>
<path d="M2.08463 31.2505H4.16794C4.4442 31.2505 4.70915 31.1407 4.9045 30.9454C5.09985 30.75 5.20959 30.485 5.20959 30.2087C5.20959 29.9325 5.09985 29.6675 4.9045 29.4721C4.70915 29.2767 4.4442 29.167 4.16794 29.167H2.08463C1.80836 29.167 1.54341 29.2767 1.34806 29.4721C1.15271 29.6675 1.04297 29.9325 1.04297 30.2087C1.04297 30.485 1.15271 30.75 1.34806 30.9454C1.54341 31.1407 1.80836 31.2505 2.08463 31.2505Z" fill="#7190C4"/>
<path d="M9.3737 51.0425H21.8737C22.15 51.0425 22.415 50.9327 22.6103 50.7374C22.8057 50.542 22.9154 50.277 22.9154 50.0007C22.9154 49.7244 22.8057 49.4595 22.6103 49.2641C22.415 49.0687 22.15 48.959 21.8737 48.959H9.3737C9.09743 48.959 8.83248 49.0687 8.63713 49.2641C8.44178 49.4595 8.33203 49.7244 8.33203 50.0007C8.33203 50.277 8.44178 50.542 8.63713 50.7374C8.83248 50.9327 9.09743 51.0425 9.3737 51.0425Z" fill="#39426A"/>
<path d="M19.7904 56.25H12.4987C12.2224 56.25 11.9575 56.3598 11.7621 56.5551C11.5668 56.7505 11.457 57.0155 11.457 57.2917C11.457 57.568 11.5668 57.833 11.7621 58.0284C11.9575 58.2237 12.2224 58.3335 12.4987 58.3335H19.7904C20.0666 58.3335 20.3316 58.2237 20.5269 58.0284C20.7223 57.833 20.832 57.568 20.832 57.2917C20.832 57.0155 20.7223 56.7505 20.5269 56.5551C20.3316 56.3598 20.0666 56.25 19.7904 56.25Z" fill="#39426A"/>
<path d="M18.7513 63.542H14.5846C14.3084 63.542 14.0434 63.6517 13.8481 63.847C13.6527 64.0424 13.543 64.3073 13.543 64.5835C13.543 64.8597 13.6527 65.1246 13.8481 65.32C14.0434 65.5153 14.3084 65.625 14.5846 65.625H18.7513C19.0276 65.625 19.2925 65.5153 19.4879 65.32C19.6832 65.1246 19.793 64.8597 19.793 64.5835C19.793 64.3073 19.6832 64.0424 19.4879 63.847C19.2925 63.6517 19.0276 63.542 18.7513 63.542Z" fill="#39426A"/>
<path d="M25.061 48.6566C25.0525 48.6944 25.0525 48.7335 25.061 48.7712L21.936 65.4372C21.9078 65.5869 21.9127 65.741 21.9505 65.8886C21.9883 66.0362 22.058 66.1737 22.1547 66.2914C22.2481 66.4037 22.3641 66.4951 22.4951 66.5597C22.6261 66.6243 22.7692 66.6607 22.9152 66.6664H42.7069C42.9535 66.6704 43.1936 66.5867 43.3844 66.4303C43.5751 66.2739 43.7042 66.0549 43.7485 65.8122L46.8735 49.1462C46.8735 49.1462 46.8735 49.1462 46.8735 49.0837C46.8838 48.9937 46.8838 48.9029 46.8735 48.8129C46.8793 48.7645 46.8793 48.7155 46.8735 48.6671C46.8474 48.5716 46.8012 48.4829 46.7381 48.4067C46.7381 48.4067 46.7381 48.3233 46.7381 48.2921C46.6295 48.16 46.49 48.0567 46.3319 47.9913C46.1738 47.9259 46.0021 47.9004 45.8319 47.9171H26.0402C25.9117 47.9181 25.7846 47.9428 25.6652 47.99H25.5714C25.4874 48.0299 25.4101 48.0826 25.3423 48.1462C25.3273 48.1754 25.3098 48.2033 25.2902 48.2296C25.2369 48.2934 25.1914 48.3633 25.1548 48.4379C25.1129 48.5058 25.0813 48.5795 25.061 48.6566ZM41.8423 64.5831H24.1339L26.6548 51.042L34.6339 59.0208C34.7316 59.1319 34.8517 59.221 34.9864 59.282C35.1211 59.3431 35.2673 59.3748 35.4152 59.375C35.6734 59.3743 35.9221 59.2778 36.1131 59.1042L44.2381 51.8128L41.8423 64.5831ZM28.5506 50.0003H43.134L35.4152 56.8959L28.5506 50.0003Z" fill="#39426A"/>
<path d="M82.3334 52.084H72.875C72.3227 52.084 71.875 52.5317 71.875 53.0841V53.1674C71.875 53.7197 72.3227 54.1675 72.875 54.1675H82.3334C82.8857 54.1675 83.3334 53.7197 83.3334 53.1674V53.0841C83.3334 52.5317 82.8857 52.084 82.3334 52.084Z" fill="#C3E1F5"/>
<path d="M93.7513 66.667H78.1263C76.9757 66.667 76.043 67.5997 76.043 68.7502C76.043 69.9008 76.9757 70.8335 78.1263 70.8335H93.7513C94.9019 70.8335 95.8346 69.9008 95.8346 68.7502C95.8346 67.5997 94.9019 66.667 93.7513 66.667Z" fill="#F9B08F"/>
</svg>
