<svg width="100" height="99" viewBox="0 0 100 99" fill="none" xmlns="http://www.w3.org/2000/svg">
<path d="M50.0013 71.8843C32.2305 67.4676 19.793 52.0926 19.793 34.1863V8.34246H31.6784C35.0618 8.39057 38.4216 7.77134 41.5655 6.52018C44.7095 5.26903 47.5761 3.41048 50.0013 1.05078C54.9169 5.78934 61.4969 8.40786 68.3242 8.34246H80.2097V34.1863C80.2097 52.1446 67.7721 67.4676 50.0013 71.8843Z" fill="#DD8B37"/>
<path d="M50.0013 68.6553C34.0117 64.3324 22.918 50.2699 22.918 34.1865V11.4678H31.6784C38.3419 11.5524 44.8324 9.34597 50.0638 5.21777C55.2406 9.35757 61.6965 11.5672 68.3242 11.4678H77.0847V34.1865C77.0847 50.2699 65.9909 64.3324 50.0013 68.6553Z" fill="#E69C4B"/>
<path d="M50.0013 65.4058C35.8138 61.2391 26.043 48.5828 26.043 34.1557V14.5931H31.6784C38.2233 14.6486 44.6321 12.7242 50.0638 9.07227C55.4361 12.7508 61.8139 14.679 68.3242 14.5931H73.9597V34.1869C73.9597 48.5828 64.1888 61.2078 50.0013 65.4058Z" fill="#F6B756"/>
<path d="M50.0013 62.1348C37.5013 58.041 29.168 46.8847 29.168 34.1867V17.7178H31.6784C38.137 17.762 44.4869 16.0558 50.0534 12.7803C55.5706 16.0823 61.8948 17.7914 68.3242 17.7178H70.8347V34.1867C70.8347 46.8847 62.5013 58.041 50.0013 62.1348Z" fill="#FAC77D"/>
<path d="M50.0521 12.7803C55.5693 16.0823 61.8934 17.7914 68.3229 17.7178H70.8333V34.1867C70.8333 46.8847 62.5 58.041 50 62.1348L50.0521 12.7803Z" fill="#FFD69E"/>
<path d="M66.2278 28.1653L49.9154 44.488L45.9154 48.4775L41.9258 44.488L33.7695 36.3215L35.8529 34.2381L37.7591 32.3319L45.9154 40.4881L62.2383 24.1758L66.2278 28.1653Z" fill="#4DA67F"/>
<path d="M62.2406 24.1758C62.7456 24.6816 63.0293 25.3672 63.0293 26.082C63.0293 26.7968 62.7456 27.4824 62.2406 27.9883L49.9176 40.3215L45.9176 44.311L41.9281 40.3215L37.7614 36.1549C37.2563 35.649 36.9727 34.9634 36.9727 34.2486C36.9727 33.5338 37.2563 32.8482 37.7614 32.3424L45.9176 40.4986L62.2406 24.1758Z" fill="#62B28A"/>
<path d="M54.1672 57.3008C53.8277 57.2981 53.4982 57.1848 53.2288 56.9782C52.9593 56.7715 52.7645 56.4827 52.6739 56.1554C52.5832 55.8282 52.6017 55.4803 52.7264 55.1645C52.8511 54.8486 53.0754 54.582 53.3651 54.405C56.9197 52.3565 59.8746 49.4112 61.9347 45.8633C63.9947 42.3154 65.0878 38.2891 65.1047 34.1865C65.1047 33.7721 65.2694 33.3747 65.5624 33.0817C65.8554 32.7886 66.2528 32.624 66.6672 32.624C67.0816 32.624 67.4791 32.7886 67.7721 33.0817C68.0651 33.3747 68.2297 33.7721 68.2297 34.1865C68.208 38.8208 66.9723 43.3685 64.6457 47.3765C62.3191 51.3845 58.9828 54.7128 54.9693 57.03C54.732 57.1923 54.4544 57.286 54.1672 57.3008Z" fill="#FFE5C3"/>
<path d="M60.418 97.9263V78.1345C60.418 76.9765 60.6467 75.8298 61.0912 74.7605C61.5356 73.6911 62.1869 72.72 63.0077 71.9031C63.8285 71.0862 64.8026 70.4394 65.8741 70.0001C66.9456 69.5607 68.0933 69.3374 69.2513 69.3428C71.6323 69.3278 73.91 68.3687 75.5846 66.6762L82.8763 59.3845C83.6524 58.6147 84.6999 58.1807 85.793 58.1761C86.4069 58.1717 87.0133 58.3108 87.5638 58.5824C87.9985 58.7761 88.394 59.0479 88.7305 59.3845C89.5097 60.1656 89.9473 61.2239 89.9473 62.3272C89.9473 63.4305 89.5097 64.4888 88.7305 65.2699L80.2096 73.9679L88.8034 65.5199C89.3895 64.9318 89.8526 64.2328 90.1656 63.4638C90.4786 62.6947 90.6352 61.871 90.6263 61.0407V50.0095C90.6263 48.9044 91.0653 47.8446 91.8467 47.0632C92.6281 46.2818 93.6879 45.8428 94.793 45.8428C95.8981 45.8428 96.9579 46.2818 97.7393 47.0632C98.5207 47.8446 98.9597 48.9044 98.9597 50.0095V66.0824C98.9595 67.2052 98.7324 68.3164 98.292 69.3493C97.8517 70.3821 97.2072 71.3153 96.3972 72.0929L78.1263 89.6658V97.9263" fill="#EEDBCD"/>
<path d="M39.5847 78.186V98.9673H21.8764V89.6652L3.60557 72.0923C2.79556 71.3147 2.15103 70.3815 1.71069 69.3487C1.27034 68.3159 1.04326 67.2047 1.04307 66.0819V50.009C1.03803 49.2791 1.22482 48.5606 1.58473 47.9256C1.77388 47.6011 2.00119 47.3003 2.26182 47.0298C2.84642 46.4445 3.59203 46.0464 4.40365 45.8864C5.21527 45.7263 6.05617 45.8114 6.81923 46.131C7.58229 46.4505 8.23296 46.9899 8.68836 47.6806C9.14377 48.3712 9.38328 49.1817 9.3764 50.009V61.0402C9.37709 61.8681 9.54228 62.6877 9.86237 63.4513C10.1825 64.2148 10.6511 64.9072 11.241 65.4881L19.7931 73.9673L11.2722 65.3215C10.6312 64.6795 10.2172 63.8459 10.0931 62.9472C9.96904 62.0485 10.1417 61.1339 10.5847 60.3423C10.7697 60.0091 11.0012 59.7039 11.2722 59.436C11.6246 59.0818 12.0419 58.7989 12.5014 58.6027C13.0519 58.3311 13.6584 58.192 14.2722 58.1965C15.3551 58.2009 16.3938 58.6268 17.1681 59.384L24.4597 66.6756C25.2829 67.5269 26.2662 68.2072 27.3531 68.6773C28.4399 69.1474 29.609 69.3982 30.7931 69.4152C33.1211 69.4152 35.3542 70.3386 37.0023 71.9828C38.6505 73.6271 39.5792 75.858 39.5847 78.186Z" fill="#EEDBCD"/>
<path d="M36.4597 80.2711V98.9688H21.8764V89.6668L3.60557 72.0941C2.79556 71.3165 2.15103 70.3833 1.71069 69.3505C1.27034 68.3177 1.04326 67.2065 1.04307 66.0837V50.011C1.03803 49.2811 1.22482 48.5627 1.58473 47.9277C1.75124 47.9173 1.91823 47.9173 2.08473 47.9277C3.1898 47.9277 4.24961 48.3667 5.03101 49.1481C5.81241 49.9294 6.2514 50.9892 6.2514 52.0943V63.1254C6.25209 63.9534 6.41728 64.7729 6.73737 65.5364C7.05746 66.3 7.52607 66.9924 8.11598 67.5733L19.7931 73.969C19.7931 73.969 8.92848 60.8754 9.3764 60.6879C9.76915 60.4958 10.1919 60.3725 10.6264 60.3234C10.7929 60.313 10.9599 60.313 11.1264 60.3234C12.2107 60.3112 13.257 60.7223 14.0431 61.4692L21.3347 68.7608C22.1579 69.612 23.1412 70.2923 24.2281 70.7624C25.3149 71.2326 26.484 71.4833 27.6681 71.5003C29.9961 71.5003 32.2292 72.4237 33.8773 74.0679C35.5255 75.7122 36.4542 77.943 36.4597 80.2711Z" fill="#EAD4C6"/>
<path d="M63.543 80.2711V98.9688H78.1263V89.6668L96.3971 72.0941C97.2071 71.3165 97.8517 70.3833 98.292 69.3505C98.7323 68.3177 98.9594 67.2065 98.9596 66.0837V50.011C98.9647 49.2811 98.7779 48.5627 98.418 47.9277C98.2514 47.9173 98.0845 47.9173 97.918 47.9277C96.8129 47.9277 95.7531 48.3667 94.9717 49.1481C94.1903 49.9294 93.7513 50.9892 93.7513 52.0943V63.1254C93.7506 63.9534 93.5854 64.7729 93.2653 65.5364C92.9452 66.3 92.4766 66.9924 91.8867 67.5733L80.2096 73.969C80.2096 73.969 91.0742 60.8754 90.6263 60.6879C90.2335 60.4958 89.8107 60.3725 89.3763 60.3234C89.2098 60.313 89.0428 60.313 88.8763 60.3234C87.792 60.3112 86.7457 60.7223 85.9596 61.4692L78.668 68.7608C77.8448 69.612 76.8615 70.2923 75.7746 70.7624C74.6878 71.2326 73.5187 71.4833 72.3346 71.5003C70.0065 71.5003 67.7735 72.4237 66.1253 74.0679C64.4772 75.7122 63.5485 77.943 63.543 80.2711Z" fill="#EAD4C6"/>
<path d="M50 72.9261C49.917 72.9361 49.833 72.9361 49.75 72.9261C31.5 68.3532 18.75 52.4365 18.75 34.1866V8.34291C18.75 8.06664 18.8597 7.80169 19.0551 7.60634C19.2504 7.41099 19.5154 7.30125 19.7917 7.30125H31.6771C34.924 7.35313 38.1492 6.76228 41.1669 5.56271C44.1846 4.36315 46.9352 2.57856 49.2604 0.311683C50 -0.417481 50.7604 0.311683 51.2083 0.686682C55.8428 5.02234 61.9772 7.39321 68.3229 7.30125H80.2083C80.4846 7.30125 80.7495 7.41099 80.9449 7.60634C81.1403 7.80169 81.25 8.06664 81.25 8.34291V34.1866C81.25 52.4365 68.5 68.3532 50.25 72.9261C50.167 72.9361 50.083 72.9361 50 72.9261ZM20.8333 9.38457V34.1866C20.8333 51.3949 32.8125 66.4157 50 70.8427C67.1875 66.4469 79.1667 51.4261 79.1667 34.2178V9.38457H68.3229C61.5721 9.47906 55.0389 6.99836 50.0521 2.44709C45.0217 6.99508 38.458 9.47322 31.6771 9.38457H20.8333Z" fill="#39426A"/>
<path d="M78.125 98.9673C77.8487 98.9673 77.5838 98.8575 77.3884 98.6622C77.1931 98.4668 77.0833 98.2019 77.0833 97.9256V89.6652C77.0839 89.5249 77.1127 89.3862 77.1682 89.2573C77.2237 89.1284 77.3047 89.012 77.4062 88.9152L95.6771 71.3424C96.3792 70.6677 96.9391 69.8593 97.3238 68.9648C97.7084 68.0703 97.91 67.1078 97.9166 66.1341V50.0091C97.9166 49.1803 97.5874 48.3854 97.0014 47.7994C96.4153 47.2133 95.6204 46.8841 94.7916 46.8841C93.9628 46.8841 93.168 47.2133 92.5819 47.7994C91.9959 48.3854 91.6666 49.1803 91.6666 50.0091V61.0403C91.6681 62.0096 91.4764 62.9694 91.1026 63.8637C90.7288 64.758 90.1804 65.5688 89.4896 66.2486L80.8958 74.6965C80.7011 74.8874 80.4393 74.9943 80.1667 74.9943C79.894 74.9943 79.6322 74.8874 79.4375 74.6965C79.2435 74.5014 79.1346 74.2373 79.1346 73.9622C79.1346 73.687 79.2435 73.4229 79.4375 73.2278L87.9479 64.5924C88.5331 64.0065 88.8618 63.2122 88.8618 62.3841C88.8618 61.5559 88.5331 60.7617 87.9479 60.1757C87.7032 59.9331 87.4175 59.7357 87.1042 59.5924C86.5254 59.3139 85.8749 59.2205 85.2412 59.3249C84.6075 59.4292 84.0213 59.7263 83.5625 60.1757L76.2708 67.4674C74.4115 69.369 71.8779 70.4617 69.2187 70.509C67.1741 70.5062 65.2111 71.3115 63.7576 72.7494C62.304 74.1874 61.4776 76.1415 61.4583 78.1861V97.9256C61.4583 98.2019 61.3486 98.4668 61.1532 98.6622C60.9579 98.8575 60.6929 98.9673 60.4167 98.9673C60.1404 98.9673 59.8754 98.8575 59.6801 98.6622C59.4847 98.4668 59.375 98.2019 59.375 97.9256V78.134C59.375 76.8418 59.6297 75.5623 60.1245 74.3686C60.6193 73.1749 61.3446 72.0904 62.2588 71.1771C63.173 70.2639 64.2583 69.5398 65.4525 69.0462C66.6467 68.5527 67.9265 68.2993 69.2187 68.3007C71.3231 68.2553 73.325 67.3834 74.7917 65.8736L82.0833 58.582C82.8467 57.8346 83.8181 57.3352 84.8701 57.1493C85.9222 56.9635 87.0059 57.0997 87.9792 57.5403C88.5227 57.7886 89.0114 58.1428 89.4166 58.582L89.5729 58.7382V50.0091C89.5729 48.6278 90.1216 47.303 91.0984 46.3263C92.0751 45.3495 93.3999 44.8008 94.7812 44.8008C96.1626 44.8008 97.4873 45.3495 98.4641 46.3263C99.4408 47.303 99.9896 48.6278 99.9896 50.0091V66.082C99.9855 67.3436 99.729 68.5917 99.2352 69.7527C98.7415 70.9137 98.0205 71.9642 97.1146 72.8424L79.1667 90.1027V97.9256C79.1667 98.2019 79.0569 98.4668 78.8616 98.6622C78.6662 98.8575 78.4013 98.9673 78.125 98.9673Z" fill="#39426A"/>
<path d="M39.5833 98.9673C39.3071 98.9673 39.0421 98.8575 38.8468 98.6622C38.6514 98.4668 38.5417 98.2019 38.5417 97.9256V78.134C38.5417 77.1128 38.3398 76.1016 37.9478 75.1586C37.5557 74.2156 36.9811 73.3594 36.257 72.6392C35.533 71.919 34.6737 71.349 33.7286 70.962C32.7835 70.575 31.7712 70.3785 30.75 70.384C28.0908 70.3367 25.5573 69.244 23.6979 67.3424L16.4062 60.0507C15.954 59.6088 15.3783 59.3145 14.7553 59.2066C14.1323 59.0987 13.4912 59.1824 12.9167 59.4466C12.5834 59.591 12.2797 59.7959 12.0208 60.0507C11.4388 60.6362 11.1121 61.4283 11.1121 62.2539C11.1121 63.0794 11.4388 63.8715 12.0208 64.457L20.5521 73.1132C20.7461 73.3084 20.855 73.5724 20.855 73.8476C20.855 74.1228 20.7461 74.3868 20.5521 74.5819C20.3574 74.7728 20.0956 74.8797 19.8229 74.8797C19.5503 74.8797 19.2885 74.7728 19.0938 74.5819L10.5 66.1341C9.80916 65.4542 9.26081 64.6434 8.88699 63.7491C8.51318 62.8548 8.32142 61.895 8.32292 60.9257V50.0091C8.32292 49.1803 7.99368 48.3854 7.40763 47.7994C6.82157 47.2133 6.02672 46.8841 5.19792 46.8841C4.36911 46.8841 3.57426 47.2133 2.98821 47.7994C2.40216 48.3854 2.07292 49.1803 2.07292 50.0091V66.082C2.07955 67.0557 2.28114 68.0182 2.66578 68.9127C3.05043 69.8072 3.61035 70.6157 4.3125 71.2903L22.5938 88.9152C22.6953 89.012 22.7763 89.1284 22.8318 89.2573C22.8873 89.3862 22.9161 89.5249 22.9167 89.6652V97.9256C22.9167 98.2019 22.8069 98.4668 22.6116 98.6622C22.4162 98.8575 22.1513 98.9673 21.875 98.9673C21.5987 98.9673 21.3338 98.8575 21.1384 98.6622C20.9431 98.4668 20.8333 98.2019 20.8333 97.9256V90.1027L2.875 72.8424C1.96817 71.9649 1.24651 70.9146 0.752695 69.7534C0.258877 68.5922 0.00293319 67.3438 0 66.082L0 50.0091C0 48.6278 0.548733 47.303 1.52549 46.3263C2.50224 45.3495 3.827 44.8008 5.20833 44.8008C6.58967 44.8008 7.91443 45.3495 8.89118 46.3263C9.86793 47.303 10.4167 48.6278 10.4167 50.0091V58.832L10.5729 58.6757C10.9974 58.2355 11.5033 57.8817 12.0625 57.6341C12.7445 57.3053 13.4929 57.1378 14.25 57.1445C15.6214 57.1503 16.9353 57.6968 17.9062 58.6653L25.1979 65.957C26.6645 67.4668 28.6665 68.3386 30.7708 68.384H30.8229C33.4201 68.3923 35.9085 69.4276 37.7449 71.2641C39.5814 73.1006 40.6168 75.589 40.625 78.1861V97.9256C40.625 98.2019 40.5153 98.4668 40.3199 98.6622C40.1245 98.8575 39.8596 98.9673 39.5833 98.9673Z" fill="#39426A"/>
<path d="M50 66.447C49.9034 66.463 49.8049 66.463 49.7083 66.447C34.9271 62.0303 25 49.0823 25 34.1863V14.5924C25 14.3161 25.1097 14.0512 25.3051 13.8558C25.5004 13.6605 25.7654 13.5507 26.0417 13.5507H31.6771C38.0098 13.6081 44.2118 11.7489 49.4688 8.21736C49.6421 8.09867 49.8472 8.03516 50.0573 8.03516C50.2674 8.03516 50.4725 8.09867 50.6458 8.21736C55.8588 11.7757 62.0431 13.6383 68.3542 13.5507H73.9583C74.2346 13.5507 74.4995 13.6605 74.6949 13.8558C74.8903 14.0512 75 14.3161 75 14.5924V34.1863C75 49.0823 65.0729 62.0303 50.2917 66.4054C50.1974 66.4353 50.0989 66.4493 50 66.447ZM27.0833 15.6341V34.1863C27.0833 48.051 36.2812 60.1241 50 64.322C63.7188 60.1553 72.9167 48.051 72.9167 34.1863V15.6341H68.3229C61.8454 15.7134 55.4902 13.8681 50.0625 10.332C44.5761 13.8409 38.1895 15.6828 31.6771 15.6341H27.0833Z" fill="#39426A"/>
<path d="M45.9149 49.5205C45.6416 49.5193 45.3797 49.4108 45.1857 49.2184L33.0295 37.0624C32.8355 36.8672 32.7266 36.6032 32.7266 36.328C32.7266 36.0529 32.8355 35.7888 33.0295 35.5937L37.0191 31.5938C37.1159 31.4961 37.2311 31.4186 37.358 31.3658C37.485 31.3129 37.6211 31.2856 37.7586 31.2856C37.8962 31.2856 38.0323 31.3129 38.1592 31.3658C38.2862 31.4186 38.4014 31.4961 38.4982 31.5938L45.9149 39.0207L61.5399 23.396C61.6367 23.2984 61.7519 23.2209 61.8789 23.168C62.0058 23.1151 62.142 23.0879 62.2795 23.0879C62.417 23.0879 62.5531 23.1151 62.6801 23.168C62.807 23.2209 62.9222 23.2984 63.0191 23.396L67.0086 27.3855C67.1063 27.4823 67.1838 27.5976 67.2367 27.7245C67.2895 27.8514 67.3168 27.9876 67.3168 28.1251C67.3168 28.2626 67.2895 28.3987 67.2367 28.5257C67.1838 28.6526 67.1063 28.7678 67.0086 28.8646L46.6961 49.1767C46.5976 49.286 46.477 49.3731 46.3423 49.4323C46.2077 49.4915 46.062 49.5216 45.9149 49.5205ZM35.2378 36.3228L45.9149 47.0101L64.7586 28.1355L62.2378 25.6147L46.6128 41.2394C46.4176 41.4334 46.1536 41.5423 45.8784 41.5423C45.6032 41.5423 45.3392 41.4334 45.1441 41.2394L37.717 33.8125L35.2378 36.3228Z" fill="#39426A"/>
</svg>
