<svg width="101" height="96" viewBox="0 0 101 96" fill="none" xmlns="http://www.w3.org/2000/svg">
<path d="M79.1654 50.0007C79.1654 57.7362 76.0925 65.1549 70.6227 70.6247C65.1529 76.0946 57.7342 79.1675 49.9987 79.1675C42.2632 79.1675 34.8446 76.0946 29.3748 70.6247C23.9049 65.1549 20.832 57.7362 20.832 50.0007C20.832 49.1257 20.832 48.2507 20.9466 47.3965C21.592 40.1367 24.9321 33.3817 30.3091 28.4615C35.6861 23.5413 42.7104 20.8125 49.9987 20.8125C57.2871 20.8125 64.3114 23.5413 69.6884 28.4615C75.0654 33.3817 78.4054 40.1367 79.0508 47.3965C79.1654 48.2507 79.1654 49.1257 79.1654 50.0007Z" fill="#F6B756"/>
<path d="M50.0013 73.958C66.0463 73.958 79.0533 62.0656 79.0533 47.3955C79.0533 32.7254 66.0463 20.833 50.0013 20.833C33.9563 20.833 20.9492 32.7254 20.9492 47.3955C20.9492 62.0656 33.9563 73.958 50.0013 73.958Z" fill="#FAC77D"/>
<path d="M71.4584 45.7293C70.4883 41.11 68.0704 36.9204 64.556 33.7695C61.0417 30.6186 56.6141 28.6705 51.9167 28.2084C51.3935 28.1664 50.9055 27.9285 50.5501 27.5423C50.1948 27.156 49.9983 26.6499 50 26.1251C49.999 25.8359 50.0581 25.5497 50.1737 25.2847C50.2893 25.0196 50.4588 24.7816 50.6714 24.5856C50.884 24.3896 51.1351 24.2401 51.4087 24.1464C51.6823 24.0528 51.9723 24.0171 52.2604 24.0417C57.8659 24.5886 63.1497 26.9133 67.3401 30.6764C71.5304 34.4395 74.4079 39.4438 75.5521 44.9584C75.6039 45.2409 75.5968 45.5311 75.5311 45.8107C75.4654 46.0902 75.3426 46.3532 75.1705 46.5831C74.9983 46.813 74.7805 47.0048 74.5307 47.1464C74.2809 47.2881 74.0044 47.3766 73.7188 47.4064C73.2005 47.4601 72.681 47.3177 72.2625 47.0073C71.8441 46.6968 71.5572 46.2408 71.4584 45.7293Z" fill="#FFD69E"/>
<path d="M46.875 45.8327V47.916C46.875 50.6786 45.7775 53.3281 43.824 55.2816C41.8705 57.2351 39.221 58.3325 36.4583 58.3325C34.2482 58.3325 32.1286 57.4546 30.5658 55.8918C29.003 54.329 28.125 52.2094 28.125 49.9993V47.916C28.125 47.7597 28.125 47.6139 28.125 47.4681C28.2384 45.8893 28.9467 44.4124 30.1067 43.3355C31.2667 42.2586 32.7922 41.662 34.375 41.6661H42.7083C43.7432 41.6606 44.7431 42.0405 45.5133 42.7318C46.2835 43.423 46.7689 44.3762 46.875 45.4056C46.875 45.5723 46.875 45.6973 46.875 45.8327Z" fill="#7190C4"/>
<path d="M71.875 47.916V49.9993C71.875 52.2094 70.997 54.329 69.4342 55.8918C67.8714 57.4546 65.7518 58.3325 63.5417 58.3325C60.779 58.3325 58.1295 57.2351 56.176 55.2816C54.2225 53.3281 53.125 50.6786 53.125 47.916V45.8327C53.125 45.6973 53.125 45.5723 53.125 45.4368C53.2238 44.4018 53.706 43.441 54.4769 42.7433C55.2479 42.0456 56.2519 41.6614 57.2917 41.6661H65.625C67.2078 41.662 68.7333 42.2586 69.8933 43.3355C71.0533 44.4124 71.7616 45.8893 71.875 47.4681C71.875 47.6139 71.875 47.7597 71.875 47.916Z" fill="#7190C4"/>
<path d="M46.875 45.4057C46.7181 48.0606 45.5517 50.5548 43.615 52.3774C41.6782 54.1999 39.1177 55.2126 36.4583 55.208C34.3473 55.2133 32.3129 54.4173 30.7661 52.9807C29.2193 51.5441 28.2754 49.5739 28.125 47.4683C28.2384 45.8895 28.9467 44.4125 30.1067 43.3356C31.2667 42.2587 32.7922 41.662 34.375 41.6661H42.7083C43.7432 41.6606 44.7431 42.0405 45.5133 42.7318C46.2835 43.4231 46.7689 44.3762 46.875 45.4057Z" fill="#89A3CE"/>
<path d="M71.875 47.468C71.7246 49.5737 70.7807 51.5437 69.2339 52.9803C67.6871 54.4169 65.6527 55.2129 63.5417 55.2075C60.8873 55.2126 58.3312 54.2042 56.3952 52.3883C54.4593 50.5724 53.2896 48.086 53.125 45.4368C53.2238 44.4017 53.706 43.441 54.4769 42.7433C55.2479 42.0456 56.2519 41.6614 57.2917 41.6661H65.625C67.2078 41.662 68.7333 42.2586 69.8933 43.3355C71.0533 44.4124 71.7616 45.8893 71.875 47.468Z" fill="#89A3CE"/>
<path d="M80.2083 48.9584C80.4846 48.9584 80.7495 48.8486 80.9449 48.6533C81.1403 48.458 81.25 48.193 81.25 47.9167C81.25 47.6405 81.1403 47.3755 80.9449 47.1802C80.7495 46.9848 80.4846 46.8751 80.2083 46.8751H80.0417C79.2588 39.4533 75.7562 32.5839 70.2091 27.5912C64.662 22.5985 57.4631 19.8359 50 19.8359C42.5369 19.8359 35.338 22.5985 29.7909 27.5912C24.2438 32.5839 20.7412 39.4533 19.9583 46.8751H19.7917C19.5154 46.8751 19.2504 46.9848 19.0551 47.1802C18.8597 47.3755 18.75 47.6405 18.75 47.9167C18.75 48.193 18.8597 48.458 19.0551 48.6533C19.2504 48.8486 19.5154 48.9584 19.7917 48.9584C19.7917 49.3021 19.7917 49.6459 19.7917 50C19.7917 58.0117 22.9743 65.6952 28.6395 71.3603C34.3046 77.0254 41.9883 80.208 50 80.208C58.0117 80.208 65.6954 77.0254 71.3605 71.3603C77.0257 65.6952 80.2083 58.0117 80.2083 50C80.2083 49.6459 80.2083 49.3021 80.2083 48.9584ZM50 21.8754C56.9176 21.8761 63.5923 24.4262 68.7482 29.0381C73.904 33.6501 77.1793 40.0004 77.9479 46.8751H72.8333C72.5831 45.1411 71.7169 43.5553 70.3932 42.4076C69.0695 41.26 67.3769 40.6272 65.625 40.6252H57.2917C56.1639 40.6198 55.0657 40.9859 54.1667 41.6668H45.8333C44.9343 40.9859 43.8361 40.6198 42.7083 40.6252H34.375C32.6231 40.6272 30.9305 41.26 29.6068 42.4076C28.2831 43.5553 27.4169 45.1411 27.1667 46.8751H22.0521C22.8207 40.0004 26.096 33.6501 31.2518 29.0381C36.4077 24.4262 43.0824 21.8761 50 21.8754ZM50 45.8334C49.2689 45.8395 48.5515 46.0332 47.9167 46.3959V45.8334C47.9176 45.1161 47.7686 44.4065 47.4792 43.7501H52.5208C52.2314 44.4065 52.0824 45.1161 52.0833 45.8334V46.3959C51.4485 46.0332 50.7311 45.8395 50 45.8334ZM29.1667 47.9167C29.1667 46.5354 29.7154 45.2107 30.6922 44.2339C31.6689 43.2572 32.9937 42.7085 34.375 42.7085H42.7083C43.5371 42.7085 44.332 43.0377 44.918 43.6237C45.5041 44.2098 45.8333 45.0046 45.8333 45.8334V47.9167C45.8333 50.4031 44.8456 52.7876 43.0875 54.5458C41.3293 56.3039 38.9447 57.2916 36.4583 57.2916C34.5245 57.2916 32.6698 56.5234 31.3023 55.156C29.9349 53.7885 29.1667 51.9339 29.1667 50V47.9167ZM55.0312 51.8334C54.461 50.6064 54.1659 49.2697 54.1667 47.9167V45.8334C54.1667 45.0046 54.4959 44.2098 55.082 43.6237C55.668 43.0377 56.4629 42.7085 57.2917 42.7085H65.625C67.0063 42.7085 68.3311 43.2572 69.3078 44.2339C70.2846 45.2107 70.8333 46.5354 70.8333 47.9167V50C70.8333 51.9339 70.0651 53.7885 68.6977 55.156C67.3302 56.5234 65.4755 57.2916 63.5417 57.2916C61.7498 57.2902 59.9959 56.7754 58.4876 55.808C56.9793 54.8407 55.7798 53.4613 55.0312 51.8334ZM50 78.1247C42.5408 78.1247 35.3871 75.1616 30.1126 69.8872C24.8382 64.6128 21.875 57.4592 21.875 50C21.875 49.6459 21.875 49.3021 21.875 48.9584H27.0833V50C27.0833 52.4864 28.0711 54.871 29.8292 56.6291C31.5874 58.3872 33.9719 59.3749 36.4583 59.3749C39.2331 59.3714 41.9124 58.3611 43.9986 56.5316C46.0849 54.7021 47.4363 52.1777 47.8021 49.4271C47.9722 48.985 48.2722 48.6048 48.6627 48.3366C49.0532 48.0684 49.5159 47.9248 49.9896 47.9248C50.4633 47.9248 50.9259 48.0684 51.3164 48.3366C51.7069 48.6048 52.007 48.985 52.1771 49.4271C52.3354 50.5336 52.6547 51.611 53.125 52.625C53.123 52.6493 53.123 52.6737 53.125 52.6979C54.0402 54.6911 55.5082 56.3797 57.3546 57.5633C59.2011 58.7468 61.3484 59.3756 63.5417 59.3749C66.0281 59.3749 68.4126 58.3872 70.1708 56.6291C71.9289 54.871 72.9167 52.4864 72.9167 50V48.9584H78.125C78.125 49.3021 78.125 49.6459 78.125 50C78.125 57.4592 75.1618 64.6128 69.8874 69.8872C64.6129 75.1616 57.4592 78.1247 50 78.1247Z" fill="#39426A"/>
<path d="M98.9597 48.958H86.4596C86.1834 48.958 85.9184 49.0678 85.7231 49.2631C85.5277 49.4585 85.418 49.7235 85.418 49.9998C85.418 50.276 85.5277 50.541 85.7231 50.7364C85.9184 50.9317 86.1834 51.0415 86.4596 51.0415H98.9597C99.2359 51.0415 99.5009 50.9317 99.6962 50.7364C99.8916 50.541 100.001 50.276 100.001 49.9998C100.001 49.7235 99.8916 49.4585 99.6962 49.2631C99.5009 49.0678 99.2359 48.958 98.9597 48.958Z" fill="#39426A"/>
<path d="M14.5834 49.9998C14.5834 49.7235 14.4736 49.4585 14.2783 49.2631C14.0829 49.0678 13.818 48.958 13.5417 48.958H1.04167C0.765402 48.958 0.500449 49.0678 0.305098 49.2631C0.109747 49.4585 0 49.7235 0 49.9998C0 50.276 0.109747 50.541 0.305098 50.7364C0.500449 50.9317 0.765402 51.0415 1.04167 51.0415H13.5417C13.818 51.0415 14.0829 50.9317 14.2783 50.7364C14.4736 50.541 14.5834 50.276 14.5834 49.9998Z" fill="#39426A"/>
<path d="M49.9987 85.416C49.7224 85.416 49.4575 85.5258 49.2621 85.7211C49.0668 85.9165 48.957 86.1814 48.957 86.4577V98.9583C48.957 99.2346 49.0668 99.4995 49.2621 99.6949C49.4575 99.8902 49.7224 100 49.9987 100C50.275 100 50.5399 99.8902 50.7353 99.6949C50.9307 99.4995 51.0404 99.2346 51.0404 98.9583V86.4577C51.0404 86.1814 50.9307 85.9165 50.7353 85.7211C50.5399 85.5258 50.275 85.416 49.9987 85.416Z" fill="#39426A"/>
<path d="M49.9987 14.584C50.275 14.584 50.5399 14.4742 50.7353 14.2789C50.9307 14.0835 51.0404 13.8186 51.0404 13.5423V1.04171C51.0404 0.765434 50.9307 0.50047 50.7353 0.305111C50.5399 0.109752 50.275 0 49.9987 0C49.7224 0 49.4575 0.109752 49.2621 0.305111C49.0668 0.50047 48.957 0.765434 48.957 1.04171V13.5423C48.957 13.8186 49.0668 14.0835 49.2621 14.2789C49.4575 14.4742 49.7224 14.584 49.9987 14.584Z" fill="#39426A"/>
<path d="M75.7829 25.2604C75.9199 25.2612 76.0558 25.2349 76.1828 25.1831C76.3097 25.1313 76.4251 25.0549 76.5224 24.9584L85.3557 16.1147C85.5264 15.9154 85.6156 15.6591 85.6054 15.397C85.5953 15.1348 85.4866 14.8861 85.3011 14.7006C85.1156 14.5151 84.8669 14.4064 84.6047 14.3963C84.3426 14.3862 84.0863 14.4753 83.887 14.646L75.0016 23.4792C74.8975 23.5766 74.8146 23.6944 74.7579 23.8252C74.7011 23.956 74.6719 24.097 74.6719 24.2396C74.6719 24.3822 74.7011 24.5232 74.7579 24.654C74.8146 24.7848 74.8975 24.9026 75.0016 25C75.1073 25.0942 75.2311 25.1659 75.3654 25.2107C75.4997 25.2555 75.6418 25.2724 75.7829 25.2604Z" fill="#39426A"/>
<path d="M23.48 75.0005L14.6467 83.8441C14.4526 84.0393 14.3438 84.3033 14.3438 84.5785C14.3438 84.8536 14.4526 85.1177 14.6467 85.3128C14.8418 85.5068 15.1058 85.6157 15.381 85.6157C15.6562 85.6157 15.9202 85.5068 16.1154 85.3128L25.0008 76.5213C25.1007 76.4215 25.1799 76.3029 25.2339 76.1724C25.288 76.042 25.3158 75.9021 25.3158 75.7609C25.3158 75.6197 25.288 75.4799 25.2339 75.3494C25.1799 75.2189 25.1007 75.1004 25.0008 75.0005C24.901 74.9007 24.7824 74.8214 24.6519 74.7674C24.5215 74.7134 24.3816 74.6855 24.2404 74.6855C24.0992 74.6855 23.9593 74.7134 23.8289 74.7674C23.6984 74.8214 23.5798 74.9007 23.48 75.0005Z" fill="#39426A"/>
<path d="M76.5194 75.0005C76.3177 74.7988 76.0442 74.6855 75.759 74.6855C75.4738 74.6855 75.2002 74.7988 74.9986 75.0005C74.7969 75.2022 74.6836 75.4757 74.6836 75.761C74.6836 76.0462 74.7969 76.3197 74.9986 76.5214L83.8423 85.3548C84.0375 85.5488 84.3015 85.6577 84.5767 85.6577C84.8519 85.6577 85.1159 85.5488 85.3111 85.3548C85.5051 85.1596 85.614 84.8956 85.614 84.6204C85.614 84.3452 85.5051 84.0812 85.3111 83.886L76.5194 75.0005Z" fill="#39426A"/>
<path d="M23.4796 25.0001C23.577 25.0966 23.6924 25.173 23.8193 25.2249C23.9462 25.2767 24.0821 25.303 24.2192 25.3022C24.3633 25.3086 24.5071 25.2851 24.6415 25.2331C24.776 25.1811 24.8982 25.1018 25.0005 25.0001C25.0981 24.9033 25.1756 24.7881 25.2285 24.6611C25.2814 24.5342 25.3086 24.3981 25.3086 24.2605C25.3086 24.123 25.2814 23.9869 25.2285 23.86C25.1756 23.733 25.0981 23.6178 25.0005 23.521L16.1567 14.688C15.9575 14.5173 15.7011 14.4282 15.439 14.4383C15.1768 14.4484 14.9281 14.5571 14.7426 14.7426C14.5571 14.9281 14.4484 15.1768 14.4383 15.4389C14.4282 15.7011 14.5173 15.9574 14.688 16.1567L23.4796 25.0001Z" fill="#39426A"/>
<path d="M35.1231 16.9157C35.2013 17.1059 35.334 17.2688 35.5045 17.3837C35.6751 17.4986 35.8758 17.5605 36.0815 17.5615C36.2209 17.5589 36.3586 17.5307 36.4877 17.4782C36.6144 17.4257 36.7295 17.3488 36.8264 17.2518C36.9233 17.1547 37.0001 17.0395 37.0524 16.9127C37.1046 16.786 37.1313 16.6501 37.131 16.513C37.1306 16.3759 37.1032 16.2402 37.0502 16.1137L33.8627 8.41604C33.7563 8.1605 33.5528 7.95768 33.2969 7.8522C33.041 7.74671 32.7537 7.7472 32.4981 7.85356C32.2426 7.95992 32.0397 8.16344 31.9342 8.41934C31.8287 8.67523 31.8292 8.96256 31.9356 9.21809L35.1231 16.9157Z" fill="#39426A"/>
<path d="M65.9174 83.0831C65.811 82.8275 65.6075 82.6247 65.3516 82.5192C65.0957 82.4137 64.8083 82.4142 64.5528 82.5206C64.2972 82.6269 64.0944 82.8304 63.9889 83.0864C63.8834 83.3423 63.8839 83.6296 63.9903 83.8852L67.1778 91.5831C67.2566 91.775 67.391 91.939 67.5635 92.0541C67.7361 92.1691 67.9392 92.23 68.1466 92.229C68.2827 92.2273 68.4172 92.199 68.5424 92.1457C68.6691 92.0932 68.7842 92.0163 68.8811 91.9192C68.978 91.8222 69.0548 91.707 69.1071 91.5802C69.1593 91.4534 69.186 91.3175 69.1857 91.1804C69.1853 91.0433 69.1579 90.9076 69.1049 90.7811L65.9174 83.0831Z" fill="#39426A"/>
<path d="M64.5846 17.4782C64.7138 17.5307 64.8515 17.5589 64.9909 17.5615C65.1965 17.5605 65.3973 17.4986 65.5678 17.3837C65.7384 17.2688 65.8711 17.1059 65.9492 16.9157L69.1367 9.21809C69.1893 9.09156 69.2166 8.9559 69.2168 8.81885C69.217 8.6818 69.1903 8.54604 69.138 8.41933C69.0858 8.29263 69.0091 8.17745 68.9124 8.08037C68.8156 7.9833 68.7007 7.90623 68.5742 7.85356C68.4476 7.8009 68.312 7.77367 68.1749 7.77344C68.0379 7.7732 67.9021 7.79997 67.7754 7.8522C67.6487 7.90443 67.5335 7.98111 67.4364 8.07785C67.3393 8.17459 67.2623 8.28951 67.2096 8.41604L64.0221 16.1137C63.9692 16.2402 63.9418 16.3759 63.9414 16.513C63.941 16.6501 63.9678 16.786 64.02 16.9127C64.0723 17.0395 64.1491 17.1547 64.246 17.2518C64.3428 17.3488 64.4579 17.4257 64.5846 17.4782Z" fill="#39426A"/>
<path d="M36.4571 82.5212C36.3306 82.4682 36.1949 82.4408 36.0577 82.4404C35.9206 82.4401 35.7848 82.4668 35.658 82.519C35.5312 82.5713 35.416 82.6481 35.3189 82.745C35.2219 82.8419 35.1449 82.957 35.0925 83.0837L31.905 90.7816C31.852 90.9081 31.8246 91.0438 31.8242 91.1809C31.8239 91.318 31.8506 91.4539 31.9028 91.5807C31.9551 91.7075 32.0319 91.8227 32.1288 91.9197C32.2257 92.0167 32.3408 92.0937 32.4675 92.1461C32.5927 92.1995 32.7272 92.2278 32.8633 92.2295C33.0707 92.2305 33.2737 92.1696 33.4463 92.0545C33.6189 91.9395 33.7532 91.7755 33.8321 91.5836L37.0196 83.8858C37.0725 83.7593 37.1 83.6236 37.1003 83.4864C37.1007 83.3493 37.074 83.2134 37.0217 83.0866C36.9695 82.9599 36.8927 82.8447 36.7958 82.7476C36.6989 82.6506 36.5838 82.5736 36.4571 82.5212Z" fill="#39426A"/>
<path d="M83.0415 35.969C83.122 36.1589 83.257 36.3207 83.4294 36.4338C83.6019 36.547 83.8041 36.6063 84.0103 36.6044C84.1456 36.6046 84.2798 36.5799 84.4061 36.5315L92.1041 33.3335C92.3596 33.2271 92.5625 33.0236 92.6679 32.7677C92.7734 32.5117 92.7729 32.2244 92.6666 31.9688C92.5602 31.7133 92.3567 31.5104 92.1008 31.4049C91.8449 31.2994 91.5575 31.2999 91.302 31.4063L83.604 34.5939C83.4761 34.6463 83.3598 34.7237 83.262 34.8215C83.1643 34.9193 83.0869 35.0356 83.0346 35.1636C82.9822 35.2916 82.9559 35.4287 82.9571 35.567C82.9583 35.7053 82.987 35.8419 83.0415 35.969Z" fill="#39426A"/>
<path d="M17.9997 64.0309C17.8937 63.7827 17.6954 63.5853 17.4467 63.4803C17.198 63.3754 16.9182 63.3711 16.6664 63.4684L8.93726 66.6661C8.80811 66.7146 8.68988 66.7883 8.58943 66.8828C8.48898 66.9774 8.40831 67.0909 8.3521 67.2169C8.2959 67.3429 8.26527 67.4787 8.26201 67.6167C8.25875 67.7546 8.28291 67.8917 8.3331 68.0202C8.41124 68.2104 8.54395 68.3733 8.71449 68.4882C8.88503 68.6031 9.08578 68.665 9.29143 68.666C9.43081 68.6634 9.56853 68.6352 9.69768 68.5827L17.3956 65.3954C17.526 65.347 17.6454 65.273 17.7467 65.1777C17.848 65.0824 17.9292 64.9678 17.9855 64.8406C18.0418 64.7134 18.0721 64.5762 18.0745 64.4372C18.077 64.2981 18.0515 64.16 17.9997 64.0309Z" fill="#39426A"/>
<path d="M92.1035 66.6665L84.3744 63.4688C84.1188 63.3624 83.8315 63.3619 83.5756 63.4674C83.3197 63.5729 83.1162 63.7757 83.0098 64.0313C82.9035 64.2868 82.903 64.5741 83.0084 64.83C83.1139 65.0859 83.3168 65.2894 83.5723 65.3957L91.2702 68.583C91.3993 68.6355 91.537 68.6637 91.6764 68.6663C91.8943 68.6803 92.1111 68.6255 92.2962 68.5096C92.4812 68.3938 92.6252 68.2227 92.7077 68.0205C92.7579 67.892 92.782 67.7549 92.7788 67.617C92.7755 67.4791 92.7449 67.3432 92.6887 67.2172C92.6325 67.0912 92.5518 66.9777 92.4513 66.8831C92.3509 66.7886 92.2327 66.7149 92.1035 66.6665Z" fill="#39426A"/>
<path d="M8.93736 33.3339L16.6665 36.5321C16.7929 36.5804 16.9271 36.6051 17.0624 36.605C17.3023 36.6045 17.5347 36.5212 17.7203 36.3692C17.906 36.2172 18.0334 36.0058 18.0812 35.7706C18.129 35.5355 18.0941 35.291 17.9825 35.0786C17.8709 34.8662 17.6894 34.6989 17.4686 34.6048L9.73945 31.4171C9.49 31.3336 9.2182 31.3476 8.97864 31.4563C8.73907 31.5649 8.54948 31.7602 8.44793 32.0029C8.34639 32.2455 8.34041 32.5176 8.43119 32.7645C8.52198 33.0115 8.70281 33.2149 8.93736 33.3339Z" fill="#39426A"/>
<path d="M56.6254 65.9997C54.8676 67.7552 52.4848 68.7412 50.0004 68.7412C47.516 68.7412 45.1332 67.7552 43.3754 65.9997C43.2782 65.9026 43.1629 65.8255 43.036 65.773C42.9091 65.7204 42.7731 65.6934 42.6358 65.6934C42.4984 65.6934 42.3624 65.7204 42.2355 65.773C42.1086 65.8255 41.9933 65.9026 41.8962 65.9997C41.7991 66.0968 41.722 66.2121 41.6695 66.339C41.6169 66.4659 41.5898 66.6019 41.5898 66.7392C41.5898 66.8765 41.6169 67.0125 41.6695 67.1394C41.722 67.2663 41.7991 67.3816 41.8962 67.4787C42.9603 68.5432 44.2237 69.3876 45.6142 69.9638C47.0047 70.5399 48.4952 70.8364 50.0004 70.8364C51.5056 70.8364 52.996 70.5399 54.3865 69.9638C55.7771 69.3876 57.0405 68.5432 58.1045 67.4787C58.2017 67.3816 58.2787 67.2663 58.3313 67.1394C58.3838 67.0125 58.4109 66.8765 58.4109 66.7392C58.4109 66.6019 58.3838 66.4659 58.3313 66.339C58.2787 66.2121 58.2017 66.0968 58.1045 65.9997C58.0074 65.9026 57.8921 65.8255 57.7652 65.773C57.6383 65.7204 57.5023 65.6934 57.365 65.6934C57.2276 65.6934 57.0916 65.7204 56.9647 65.773C56.8378 65.8255 56.7225 65.9026 56.6254 65.9997Z" fill="#39426A"/>
<path d="M42.7097 51.042C42.4334 51.042 42.1684 50.9322 41.9731 50.7369C41.7777 50.5415 41.668 50.2766 41.668 50.0003V48.9587C41.668 48.4061 41.4485 47.8762 41.0578 47.4855C40.6671 47.0948 40.1372 46.8753 39.5846 46.8753C39.3084 46.8753 39.0434 46.7656 38.8481 46.5702C38.6527 46.3749 38.543 46.1099 38.543 45.8337C38.543 45.5574 38.6527 45.2924 38.8481 45.0971C39.0434 44.9017 39.3084 44.792 39.5846 44.792C40.6897 44.792 41.7495 45.231 42.5309 46.0124C43.3124 46.7938 43.7513 47.8536 43.7513 48.9587V50.0003C43.7513 50.2766 43.6416 50.5415 43.4462 50.7369C43.2509 50.9322 42.9859 51.042 42.7097 51.042Z" fill="#A5B9DB"/>
<path d="M67.707 51.042C67.4307 51.042 67.1658 50.9322 66.9704 50.7369C66.7751 50.5415 66.6653 50.2766 66.6653 50.0003V47.8337C66.6444 47.5721 66.5254 47.3281 66.3323 47.1504C66.1392 46.9727 65.8861 46.8745 65.6237 46.8753C65.3474 46.8753 65.0825 46.7656 64.8871 46.5702C64.6918 46.3749 64.582 46.1099 64.582 45.8337C64.582 45.5574 64.6918 45.2924 64.8871 45.0971C65.0825 44.9017 65.3474 44.792 65.6237 44.792C66.4143 44.7899 67.1763 45.0875 67.7561 45.6248C68.336 46.1622 68.6907 46.8994 68.7487 47.6878V50.0003C68.7487 50.2766 68.6389 50.5415 68.4436 50.7369C68.2482 50.9322 67.9833 51.042 67.707 51.042Z" fill="#A5B9DB"/>
</svg>
