<svg width="19" height="20" viewBox="0 0 19 20" fill="none" xmlns="http://www.w3.org/2000/svg">
<path opacity="0.4" d="M17.263 6.22766L15.6606 18.2597" stroke="white" stroke-width="0.653202" stroke-linecap="round" stroke-linejoin="round"/>
<path opacity="0.15" d="M18.0607 7.1405L16.7125 17.264" stroke="white" stroke-width="0.549591" stroke-linecap="round" stroke-linejoin="round"/>
<path d="M16.2683 5.39795H1L2.81149 19H14.4568L16.2683 5.39795Z" stroke="white" stroke-width="0.738438" stroke-linecap="round" stroke-linejoin="round"/>
<path d="M5.01116 8.12491C5.01116 8.12491 3.71724 1 8.56944 1C13.4216 1 12.1277 8.12491 12.1277 8.12491" stroke="orange" stroke-width="0.738438" stroke-linecap="round" stroke-linejoin="round"/>
<path d="M12.9582 8.09483C12.9582 8.49323 12.6532 8.80929 12.2853 8.80929C11.9173 8.80929 11.6123 8.49323 11.6123 8.09483C11.6123 7.69643 11.9173 7.38036 12.2853 7.38036C12.6532 7.38036 12.9582 7.69643 12.9582 8.09483Z" stroke="white" stroke-width="0.147688"/>
<path d="M5.656 8.09483C5.656 8.49323 5.35098 8.80929 4.98302 8.80929C4.61506 8.80929 4.31005 8.49323 4.31005 8.09483C4.31005 7.69643 4.61506 7.38036 4.98302 7.38036C5.35098 7.38036 5.656 7.69643 5.656 8.09483Z" stroke="white" stroke-width="0.147688"/>
</svg>
